<svg xmlns="http://www.w3.org/2000/svg" id="containedobject" width="63.776" height="56.219" viewBox="0 0 63.776 56.219"><ellipse id="Ellipse_55" cx="28.109" cy="28.109" fill="#d1454b" data-name="Ellipse 55" rx="28.109" ry="28.109" transform="translate(4.335 0)"/><g id="Group_251" data-name="Group 251" transform="translate(0 10.578)"><g id="Group_250" data-name="Group 250" transform="translate(0 4.394)"><path id="Path_553" fill="#3e2d4a" d="M551.033,82.341s14.735-13.415,28.255-12.272,24.033,13.886,24.033,13.886-13.7,12.284-25.549,11.738S551.033,82.341,551.033,82.341Z" data-name="Path 553" transform="translate(-539.546 -70)"/><path id="Path_554" fill="#c05c5d" d="M556,83.084s11.741-11.48,23.5-10.512,21.262,12.387,21.262,12.387-11.942,9.959-22.253,9.5S556,83.084,556,83.084Z" data-name="Path 554" transform="translate(-540.761 -70.614)"/><path id="Path_555" fill="#3e2d4a" d="M592.09,71.515l1.047,24.37a44.613,44.613,0,0,0,17.382-11.425S600.4,71.8,592.09,71.515Z" data-name="Path 555" transform="translate(-549.582 -70.37)"/><path id="Path_556" fill="#3e2d4a" d="M539.593,75.662s7.693,3.935,9.446,8.777a19.267,19.267,0,0,1-13.21,5.31l7.895-5.853S539.9,79.186,539.593,75.662Z" data-name="Path 556" transform="translate(-535.829 -71.384)"/><path id="Path_557" fill="#fff" d="M557.619,86.1l25.662-1.726-.129,2.417S560.488,88.118,557.619,86.1Z" data-name="Path 557" transform="translate(-541.155 -73.513)"/><path id="Path_558" fill="#fff" d="M586.193,75.34l.83,17.492S583.113,83.933,586.193,75.34Z" data-name="Path 558" transform="translate(-547.851 -71.305)"/><path id="Path_559" fill="#fff" d="M577.043,75.63l.83,17.492S573.963,84.223,577.043,75.63Z" data-name="Path 559" transform="translate(-545.615 -71.376)"/><path id="Path_560" fill="#fff" d="M568.453,78.228l.6,12.655S566.011,84.455,568.453,78.228Z" data-name="Path 560" transform="translate(-543.572 -72.011)"/></g><path id="Path_561" fill="#f3e6d5" d="M613.057,91.083s-3.931-5.069-6.075.426C606.982,91.509,610.2,88.664,613.057,91.083Z" data-name="Path 561" transform="translate(-553.222 -70.238)"/><ellipse id="Ellipse_56" cx="2.966" cy="2.966" fill="#f3e6d5" data-name="Ellipse 56" rx="2.966" ry="2.966" transform="translate(47.827 11.927)"/><ellipse id="Ellipse_57" cx="1.537" cy="1.537" fill="#3e2d4a" data-name="Ellipse 57" rx="1.537" ry="1.537" transform="translate(49.257 13.357)"/><path id="Path_562" fill="#3e2d4a" d="M591.4,69.538s-6.5-4.283-8.795-5.354C582.61,64.184,582.228,70.914,591.4,69.538Z" data-name="Path 562" transform="translate(-547.264 -64.184)"/><path id="Path_563" fill="#3e2d4a" d="M582.663,108.155s6.848-3.7,8.877-5.217C591.54,102.938,585.791,99.418,582.663,108.155Z" data-name="Path 563" transform="translate(-547.277 -73.486)"/></g></svg>