<svg xmlns="http://www.w3.org/2000/svg" xmlns:xlink="http://www.w3.org/1999/xlink" width="388" height="340.187" viewBox="0 0 388 340.187"><defs><linearGradient id="linear-gradient" x1="-.073" x2="1.133" y1=".239" y2=".946" gradientUnits="objectBoundingBox"><stop offset=".4" stop-color="#fff2c3"/><stop offset="1" stop-color="#3e1300"/></linearGradient><linearGradient id="linear-gradient-2" x1="-.43" x2="-.389" y1="-.638" y2="1.329" gradientUnits="objectBoundingBox"><stop offset=".4" stop-color="#fff2c3"/><stop offset="1" stop-color="#331700"/></linearGradient></defs><g id="disinfect_electronics" data-name="disinfect electronics" transform="translate(0 0.003)"><g id="Layer_2" data-name="Layer 2" transform="translate(0 -0.003)"><g id="_1" data-name="1"><path id="Path_5045" fill="#a09d98" d="M42.734,162.07a2.411,2.411,0,0,0-2.17-2.23h-6.75a1.205,1.205,0,0,0-.952.518,1.772,1.772,0,0,0-.289,1.205l2.013,15.814a1.989,1.989,0,0,0,1.832,1.941h6.461a1.675,1.675,0,0,0,1.35-.735,2.411,2.411,0,0,0,.41-1.712Z" data-name="Path 5045" transform="translate(6.687 32.83)"/><path id="Path_5046" fill="#87837c" d="M44.118,172.333a10.933,10.933,0,0,1-8.438-2.1,11.343,11.343,0,0,1-2.29-2.266l.988,7.751a1.989,1.989,0,0,0,1.868,1.929h6.461a1.675,1.675,0,0,0,1.35-.735,2.411,2.411,0,0,0,.41-1.712Z" data-name="Path 5046" transform="translate(6.857 34.5)"/><path id="Path_5047" fill="#efe8df" d="M43.838,161.87a2.411,2.411,0,0,0-2.158-2.23H34.894a1.205,1.205,0,0,0-.952.53,1.688,1.688,0,0,0-.289,1.205L35.666,177.2a1.977,1.977,0,0,0,1.82,1.88h6.473a1.675,1.675,0,0,0,1.35-.735,2.483,2.483,0,0,0,.41-1.712Z" data-name="Path 5047" transform="translate(6.908 32.789)"/><path id="Path_5048" fill="#fff3e9" d="M44.007,165.376c-3.942-2.507-7.968-3.616-10.2-2.965l.9,7.039a22.9,22.9,0,0,0,4.424,3.616,21.577,21.577,0,0,0,6.521,2.857l-1.314-10.354Z" data-name="Path 5048" transform="translate(6.944 33.321)"/><path id="Path_5049" fill="#443c31" d="M42.7,161.964a1.832,1.832,0,0,0-1.712-1.784l-5.388.108a.94.94,0,0,0-.747.446,1.41,1.41,0,0,0-.229.988l1.591,12.885a1.567,1.567,0,0,0,1.446,1.507l5.135-.108a1.374,1.374,0,0,0,1.073-.627,2.109,2.109,0,0,0,.325-1.41Z" data-name="Path 5049" transform="translate(7.108 32.9)"/><path id="Path_5050" fill="#70665a" d="M43.016,167.552l-.687-5.5a1.736,1.736,0,0,0-1.6-1.675l-5.038.108a.687.687,0,0,0-.337.1C35.76,162.477,41.546,167.154,43.016,167.552Z" data-name="Path 5050" transform="translate(7.26 32.941)"/><path id="Path_5051" fill="#5b5043" d="M43.884,171.211a13.162,13.162,0,0,1-8.594-4.291l.783,6.3a1.567,1.567,0,0,0,1.446,1.507l5.135-.108A1.374,1.374,0,0,0,43.728,174a2.109,2.109,0,0,0,.325-1.41Z" data-name="Path 5051" transform="translate(7.248 34.284)"/><path id="Path_5052" fill="#4c4842" d="M40.758,174.65a.964.964,0,0,0-.844-1,.856.856,0,0,0-.844.928.94.94,0,0,0,.844.988.856.856,0,0,0,.844-.916Z" data-name="Path 5052" transform="translate(8.023 35.666)"/><path id="Path_5053" fill="#efe8df" d="M40.447,174.587a.651.651,0,0,0-.579-.687.591.591,0,0,0-.579.639.651.651,0,0,0,.579.687.591.591,0,0,0,.579-.639Z" data-name="Path 5053" transform="translate(8.069 35.718)"/><path id="Path_5054" fill="#f2e4d6" d="M48.22,174.98H32.9v4.556H49.751Z" data-name="Path 5054" transform="translate(6.757 35.939)"/><path id="Path_5055" fill="#fff3e6" d="M48.32,174.98H33l6.473.53,9.751,2.459Z" data-name="Path 5055" transform="translate(6.777 35.939)"/><path id="Path_5056" fill="#e0cdba" d="M40.052,174.98H31.566l-1.386,4.556h9.872Z" data-name="Path 5056" transform="translate(6.198 35.939)"/><path id="Path_5057" fill="#c6b09d" d="M31.346,175l-.1.325a12.745,12.745,0,0,1,1.543-.108c3.749,0,6.786,1.627,6.786,3.616a2.061,2.061,0,0,1-.133.711h.386V175Z" data-name="Path 5057" transform="translate(6.418 35.943)"/><rect id="Rectangle_1055" width=".506" height="3.098" fill="#d6c7b4" data-name="Rectangle 1055" transform="matrix(0.993, -0.118, 0.118, 0.993, 40.056, 197.101)"/><path id="Path_5058" fill="#e0d6ca" d="M104.75,179.717h19.756C116.683,170.376,107.607,167,104.75,179.717Z" data-name="Path 5058" transform="translate(21.513 35.204)"/><path id="Path_5059" fill="#c9bcad" d="M107.961,175.184a11.981,11.981,0,0,1,5.183,4.532h11.029c-6.461-7.726-13.789-11.355-17.743-5.207C106.924,174.7,107.443,174.931,107.961,175.184Z" data-name="Path 5059" transform="translate(21.858 35.205)"/><path id="Path_5060" fill="#f7ece2" d="M107.6,172.821c1.338,2.483,4.966,5.038,9.848,6.895h6.473C118.171,172.845,111.7,169.217,107.6,172.821Z" data-name="Path 5060" transform="translate(22.098 35.205)"/><path id="Path_5061" fill="#e0d6ca" d="M119.062,178.927c-1.061-.928-4.195-3.23-3.411-3.435s4.026,3.435,4.026,3.435Z" data-name="Path 5061" transform="translate(23.726 36.043)"/><path id="Path_5062" fill="#e0d6ca" d="M215.473,174H170.32l.133,5.026h62.39l-.567-2.712Z" data-name="Path 5062" transform="translate(34.979 35.738)"/><path id="Path_5063" fill="#f4e9dc" d="M213.6,174.157,212.452,174H187.73l-2.7,5.026h25.952Z" data-name="Path 5063" transform="translate(38 35.738)"/><path id="Path_5064" fill="#bfb6ac" d="M170.32,174l.06,5.026h30.966l-.277-2.712Z" data-name="Path 5064" transform="translate(34.979 35.738)"/><path id="Path_5065" fill="#bfb6ac" d="M131.13,184.4l9.92-37.391,16.381,2.073L156.057,177.7l15.694,5.316-.229,1.386Z" data-name="Path 5065" transform="translate(26.93 30.195)"/><path id="Path_5066" fill="#e0d6ca" d="M132.29,184.4l9.932-37.391,16.381,2.073L157.217,177.7l15.694,5.316-.229,1.386Z" data-name="Path 5066" transform="translate(27.169 30.195)"/><path id="Path_5067" fill="#bfb6ac" d="M157.381,167.079l.7-18-17.225-2.073-7.076,26.048Z" data-name="Path 5067" transform="translate(27.475 30.195)"/><path id="Path_5068" fill="#bfb6ac" d="M95.1,161.828a10.921,10.921,0,0,0,2.543,7.232,8.281,8.281,0,0,0,6.232,2.989H212.25c4.821,0,8.787-4.532,8.787-10.1V90.181c0-5.581-3.93-10.1-8.787-10.1H104.418c-4.821,0-8.739,4.46-8.787,10Z" data-name="Path 5068" transform="translate(19.53 16.45)"/><path id="Path_5069" fill="#dbcfc3" d="M166.087,95.2a224.2,224.2,0,0,1,54.881,6.557V90.181c0-5.581-3.93-10.1-8.787-10.1H104.348c-4.821,0-8.739,4.46-8.787,10l-.121,16.5C115.22,99.426,139.653,95.2,166.087,95.2Z" data-name="Path 5069" transform="translate(19.601 16.45)"/><path id="Path_5070" fill="#e0d6ca" d="M99.341,161.828a11.234,11.234,0,0,0,2.411,7.232,7.811,7.811,0,0,0,6.027,2.989H211.754c4.653,0,8.438-4.52,8.438-10.1V90.181c0-5.581-3.773-10.1-8.438-10.1H108.284c-4.629,0-8.438,4.46-8.438,10Z" data-name="Path 5070" transform="translate(20.401 16.45)"/><path id="Path_5071" fill="#efe5da" d="M217.119,90.181c0-5.581-3.773-10.1-8.438-10.1H190.118L114.18,172.026H174.7l42.417-74.733Z" data-name="Path 5071" transform="translate(23.449 16.45)"/><path id="Path_5072" fill="#4c4843" d="M220.16,154.644V90.181c0-5.581-3.773-10.1-8.438-10.1H108.278c-4.629,0-8.438,4.46-8.438,10l-.47,64.56Z" data-name="Path 5072" transform="translate(20.408 16.45)"/><path id="Path_5073" fill="#878077" d="M109.206,154.644,220.16,105.055V90.181c0-5.581-3.773-10.1-8.438-10.1h-1.278l-110.979,62.2-.1,12.367Z" data-name="Path 5073" transform="translate(20.408 16.45)"/><path id="Path_5074" fill="#95d1cf" d="M216.932,89.114c0-2.965-2.061-6.244-4.6-6.244H107.158c-2.784,0-5.038,3.508-5.038,6.726v63.885H216.932Z" data-name="Path 5074" transform="translate(20.973 17.023)"/><path id="Path_5075" fill="#8ac1be" d="M167.728,82.87,102.12,142.054v11.475h27.651l61-70.659Z" data-name="Path 5075" transform="translate(20.973 17.023)"/><path id="Path_5076" fill="#8ac1be" d="M204.956,88.19v-.82L160.43,152.6h31.786l12.741-21.082Z" data-name="Path 5076" transform="translate(32.948 17.947)"/><rect id="Rectangle_1056" width="17.008" height="2.507" fill="#66615b" data-name="Rectangle 1056" transform="translate(174.212 176.783)"/><rect id="Rectangle_1057" width="27.47" height="30.158" fill="#c6f7f4" data-name="Rectangle 1057" transform="translate(203.406 110.15)"/><rect id="Rectangle_1058" width="57.05" height="38.982" fill="#c6f7f4" data-name="Rectangle 1058" transform="translate(135.315 116.888)"/><rect id="Rectangle_1059" width="45.322" height="4.038" fill="#b3e0dc" data-name="Rectangle 1059" transform="translate(159.712 165.453)"/><path id="Path_5077" fill="#eade71" d="M169.433,137.509a2.772,2.772,0,1,0-2.772,2.555,2.664,2.664,0,0,0,2.772-2.555Z" data-name="Path 5077" transform="translate(33.66 27.63)"/><path id="Path_5078" fill="#57bbff" d="M160.784,134.7h-1.929l-.8,4.846h3.52Z" data-name="Path 5078" transform="translate(32.461 27.667)"/><path id="Path_5079" fill="#e259a4" d="M154.435,135.43h-2.9l.133,3.966h3.7Z" data-name="Path 5079" transform="translate(31.12 27.817)"/><rect id="Rectangle_1060" width="4.219" height="3.604" fill="#ffd56e" data-name="Rectangle 1060" transform="translate(174.743 163.379)"/><rect id="Rectangle_1061" width="4.219" height="3.604" fill="#dfed5d" data-name="Rectangle 1061" transform="translate(166.173 163.379)"/><rect id="Rectangle_1062" width="55.736" height="5.979" fill="#e9fffd" data-name="Rectangle 1062" transform="translate(135.93 117.804)"/><rect id="Rectangle_1063" width="55.736" height="27.784" fill="#e9fffd" data-name="Rectangle 1063" transform="translate(135.93 126.242)"/><rect id="Rectangle_1064" width="25.494" height="27.784" fill="#e9fffd" data-name="Rectangle 1064" transform="translate(204.323 111.115)"/><rect id="Rectangle_1065" width="14.38" height="15.429" fill="#c8e8e4" data-name="Rectangle 1065" transform="translate(137.027 127.737)"/><rect id="Rectangle_1066" width="10.39" height="11.15" fill="#acd8e2" data-name="Rectangle 1066" transform="translate(172.633 128.448)"/><rect id="Rectangle_1067" width="5.412" height="11.15" fill="#d0e0ad" data-name="Rectangle 1067" transform="translate(184.506 128.448)"/><rect id="Rectangle_1068" width="15.959" height="1.181" fill="#c8e8e4" data-name="Rectangle 1068" transform="translate(153.384 127.737)"/><rect id="Rectangle_1069" width="15.959" height="1.181" fill="#c8e8e4" data-name="Rectangle 1069" transform="translate(153.384 130.497)"/><rect id="Rectangle_1070" width="15.959" height="1.193" fill="#c8e8e4" data-name="Rectangle 1070" transform="translate(153.384 133.667)"/><rect id="Rectangle_1071" width="15.959" height="1.181" fill="#c8e8e4" data-name="Rectangle 1071" transform="translate(153.384 136.439)"/><rect id="Rectangle_1072" width="15.959" height="1.181" fill="#c8e8e4" data-name="Rectangle 1072" transform="translate(153.384 140.128)"/><rect id="Rectangle_1073" width="15.959" height="1.181" fill="#c8e8e4" data-name="Rectangle 1073" transform="translate(153.384 142.9)"/><rect id="Rectangle_1074" width="15.959" height="1.181" fill="#c8e8e4" data-name="Rectangle 1074" transform="translate(153.384 149.228)"/><rect id="Rectangle_1075" width="15.959" height="1.181" fill="#c8e8e4" data-name="Rectangle 1075" transform="translate(153.384 152.001)"/><rect id="Rectangle_1076" width="18.334" height="1.181" fill="#c8e8e4" data-name="Rectangle 1076" transform="translate(172.236 149.228)"/><rect id="Rectangle_1077" width="18.334" height="1.181" fill="#c8e8e4" data-name="Rectangle 1077" transform="translate(172.236 152.001)"/><rect id="Rectangle_1078" width="18.334" height="1.181" fill="#c8e8e4" data-name="Rectangle 1078" transform="translate(172.236 143.431)"/><rect id="Rectangle_1079" width="18.334" height="1.181" fill="#c8e8e4" data-name="Rectangle 1079" transform="translate(172.236 146.191)"/><rect id="Rectangle_1080" width="24.529" height="16.092" fill="#93b2b1" data-name="Rectangle 1080" transform="translate(204.769 112.127)"/><rect id="Rectangle_1081" width="23.469" height="3.954" fill="#c8e8e4" data-name="Rectangle 1081" transform="translate(205.685 133.751)"/><rect id="Rectangle_1082" width="177.648" height="3.484" fill="#bab7b5" data-name="Rectangle 1082" transform="translate(2.182 221.961)"/><path id="Path_5080" fill="#d1d1d1" d="M10.406,180H.16L3.125,302.972H7.44Z" data-name="Path 5080" transform="translate(0.033 36.97)"/><path id="Path_5081" fill="#bab7b5" d="M8.79,247.368,10.406,180H.16l1.627,67.368Z" data-name="Path 5081" transform="translate(0.033 36.97)"/><path id="Path_5082" fill="#d1d1d1" d="M54.826,180H44.58l2.5,122.972h5.255Z" data-name="Path 5082" transform="translate(9.155 36.97)"/><path id="Path_5083" fill="#bab7b5" d="M48.811,180H44.58L45.6,302.972h2.17Z" data-name="Path 5083" transform="translate(9.155 36.97)"/><path id="Path_5084" fill="#bab7b5" d="M4.231,180H0L1.025,302.972H3.206Z" data-name="Path 5084" transform="translate(0 36.97)"/><path id="Path_5085" fill="#d1d1d1" d="M146.056,180H135.81l2.8,122.972h4.665Z" data-name="Path 5085" transform="translate(27.892 36.97)"/><path id="Path_5086" fill="#bab7b5" d="M144.537,246.995,146.056,180H135.81l1.531,66.995Z" data-name="Path 5086" transform="translate(27.892 36.97)"/><path id="Path_5087" fill="#bab7b5" d="M138.13,281.81v.253h4.665v-.253Z" data-name="Path 5087" transform="translate(28.368 57.879)"/><path id="Path_5088" fill="#bab7b5" d="M140.331,180H135.69l1.266,122.972h2.109Z" data-name="Path 5088" transform="translate(27.867 36.97)"/><path id="Path_5089" fill="#d1d1d1" d="M187.306,180.026l-10.246-.036,2.6,122.972,4.267.012Z" data-name="Path 5089" transform="translate(36.363 36.968)"/><path id="Path_5090" fill="#bab7b5" d="M181.364,180H176.53l1.41,122.972h2.013Z" data-name="Path 5090" transform="translate(36.254 36.97)"/><path id="Path_5091" fill="#d1d1d1" d="M213.246,180H203l2.833,122.972h4.58Z" data-name="Path 5091" transform="translate(41.69 36.97)"/><path id="Path_5092" fill="#bab7b5" d="M211.7,246.778,213.246,180H203l1.543,66.778Z" data-name="Path 5092" transform="translate(41.69 36.97)"/><path id="Path_5093" fill="#bab7b5" d="M207.816,180H203.26l1.254,122.972h2.037Z" data-name="Path 5093" transform="translate(41.744 36.97)"/><path id="Path_5094" fill="#d1d1d1" d="M247.886,180H237.64l2.881,122.972h4.5Z" data-name="Path 5094" transform="translate(48.805 36.97)"/><path id="Path_5095" fill="#bab7b5" d="M242.618,180H237.64l1.4,122.972h2.194Z" data-name="Path 5095" transform="translate(48.805 36.97)"/><path id="Path_5096" fill="#d1d1d1" d="M269.386,178.52H136.18l2.17,51.228H267.4Z" data-name="Path 5096" transform="translate(27.968 36.666)"/><path id="Path_5097" fill="#bab7b5" d="M190.313,179.62H136.18l.88,49.9L189,230.559Z" data-name="Path 5097" transform="translate(27.968 36.892)"/><path id="Path_5098" fill="#a39f9b" d="M190.313,179.62H136.18l.88,49.9,52.663-43.743Z" data-name="Path 5098" transform="translate(27.968 36.892)"/><rect id="Rectangle_1083" width="297.16" height="8.197" fill="#d1d1d1" data-name="Rectangle 1083" transform="translate(0.193 215.186)"/><path id="Path_5099" fill="#e2e2e2" d="M278.726,178.52H90.7c15.67,3.122,33.75,5.93,53.35,8.2H278.726Z" data-name="Path 5099" transform="translate(18.627 36.666)"/><rect id="Rectangle_1084" width="58.063" height="9.257" fill="#bab7b5" data-name="Rectangle 1084" transform="translate(0.193 215.186)"/><rect id="Rectangle_1085" width="297.16" height="1.615" fill="#e8e8e8" data-name="Rectangle 1085" transform="translate(0.193 215.186)"/><path id="Path_5100" fill="#bab7b5" d="M252.641,189.244l-67.549-.494-.832,33.039h68.417Z" data-name="Path 5100" transform="translate(37.842 38.767)"/><path id="Path_5101" fill="#e8e8e8" d="M254.321,188.214l-67.549-.494-.832,33.039h68.417Z" data-name="Path 5101" transform="translate(38.187 38.556)"/><path id="Path_5102" fill="#bab7b5" d="M235.352,198.988c-9.559,4.122-17.2,3.676-31.062.458V197.3a111.751,111.751,0,0,0,31.062,0Z" data-name="Path 5102" transform="translate(41.955 40.523)"/><path id="Path_5103" fill="#fff6f0" d="M235.352,197.3c-9.559-2.953-17.2-2.64-31.062-.325v1.6a154.023,154.023,0,0,1,31.062,0Z" data-name="Path 5103" transform="translate(41.955 40.085)"/><rect id="Rectangle_1086" width="2.965" height="55.773" fill="#bcb5af" data-name="Rectangle 1086" transform="translate(194.571 272.056)"/><rect id="Rectangle_1087" width=".988" height="55.773" fill="#827871" data-name="Rectangle 1087" transform="translate(195.017 272.056)"/><rect id="Rectangle_1088" width=".988" height="55.773" fill="#d3c9c2" data-name="Rectangle 1088" transform="translate(195.837 272.056)"/><path id="Path_5104" fill="#49423d" d="M157.86,231.17h12.1l-2.857,16.5-7.039.434Z" data-name="Path 5104" transform="translate(32.42 47.479)"/><path id="Path_5105" fill="#49423d" d="M166.518,276.715H159.37l1.688-16.5,4.159-.434Z" data-name="Path 5105" transform="translate(32.73 53.355)"/><path id="Path_5106" fill="#49423d" d="M139.595,219.332c-.723-1.471-.53-3.05.434-3.52s2.326.337,3.05,1.808.53,3.038-.422,3.52S140.33,220.8,139.595,219.332Z" data-name="Path 5106" transform="translate(28.579 44.298)"/><path id="Path_5107" fill="#49423d" d="M140.2,227.269c.121-1.965,13.175-.35,27.519.494s29.363,1.338,29.242,3.3-15.417,6.268-29.7,4.617C147.3,233.368,140.092,229.222,140.2,227.269Z" data-name="Path 5107" transform="translate(28.793 46.486)"/><path id="Path_5108" fill="#3f3832" d="M139.857,207.08c-2.953,15.067,9.486,22.794,9.486,22.794l4.592-3.616c-7.124-5.328-6.545-12.295-7.69-18.816Z" data-name="Path 5108" transform="translate(28.63 42.532)"/><path id="Path_5109" fill="#685c52" d="M140.408,206.8c-2.965,15.079,9.486,22.794,9.486,22.794l4.58-3.616c-7.112-5.34-6.533-12.295-7.678-18.828Z" data-name="Path 5109" transform="translate(28.742 42.474)"/><path id="Path_5110" fill="#93857a" d="M151.938,227.694a22.553,22.553,0,0,1-5.75-17.394,22.589,22.589,0,0,0,7.955,16.044l-3.1,2.218-.313-.229Z" data-name="Path 5110" transform="translate(30 43.193)"/><path id="Path_5111" fill="#3f3832" d="M139.11,210.523l8.088-1.073,1.229,6.847-7.582,1.82Z" data-name="Path 5111" transform="translate(28.569 43.019)"/><path id="Path_5112" fill="#c4b8b1" d="M202.43,231.655c9.137-3.544-1.651-12.873-29.363-11.222s-36.848,5.725-36.161,7.7S182.638,239.357,202.43,231.655Z" data-name="Path 5112" transform="translate(28.109 45.234)"/><path id="Path_5113" fill="#c4b8b1" d="M167.9,220.416c-5.822,6.943-23.782,4.171-29.375.663C42.748,160.931,244.865,128.435,167.9,220.416Z" data-name="Path 5113" transform="translate(23.041 33.486)"/><g id="Group_1093" data-name="Group 1093" transform="translate(135.435 196.558)"><path id="Path_5114" fill="url(#linear-gradient)" d="M167.867,220.41c-5.822,6.943-23.6,3.737-29.182.217C43.087,160.455,244.421,129,167.867,220.41Z" data-name="Path 5114" transform="translate(-112.36 -163.066)"/></g><path id="Path_5115" fill="#49423d" d="M187.406,275.723H142.53a61.474,61.474,0,0,1,44.876,0Z" data-name="Path 5115" transform="translate(29.272 55.758)"/><path id="Path_5116" fill="#49423d" d="M178.732,279.347c.386-2.158,1.579-3.749,2.652-3.616s1.639,2.1,1.205,4.255-1.579,3.749-2.652,3.556S178.346,281.505,178.732,279.347Z" data-name="Path 5116" transform="translate(36.68 56.629)"/><path id="Path_5117" fill="#49423d" d="M166.231,279.347c.4-2.158,1.579-3.749,2.664-3.616s1.627,2.1,1.205,4.255-1.579,3.749-2.652,3.556S165.846,281.505,166.231,279.347Z" data-name="Path 5117" transform="translate(34.113 56.629)"/><path id="Path_5118" fill="#49423d" d="M151.182,279.347c.386-2.158,1.579-3.749,2.652-3.616s1.639,2.1,1.205,4.255-1.579,3.749-2.652,3.556S150.785,281.505,151.182,279.347Z" data-name="Path 5118" transform="translate(31.022 56.629)"/><path id="Path_5119" fill="#49423d" d="M139.309,279.347c.4-2.158,1.579-3.749,2.664-3.616s1.627,2.1,1.205,4.255-1.579,3.749-2.664,3.556S138.96,281.505,139.309,279.347Z" data-name="Path 5119" transform="translate(28.587 56.629)"/><g id="Group_1094" data-name="Group 1094" transform="translate(164.98 265.473)"><path id="Path_5120" fill="url(#linear-gradient-2)" d="M202.43,231.655c9.137-3.544-1.651-12.873-29.363-11.222s-36.848,5.725-36.161,7.7S182.638,239.357,202.43,231.655Z" data-name="Path 5120" transform="translate(-136.87 -220.239)"/></g><path id="Path_5121" fill="#49423d" d="M141,275.524c0-.759.832-1.374,1.868-1.374s1.868.615,1.868,1.374-.832,1.374-1.868,1.374S141,276.284,141,275.524Z" data-name="Path 5121" transform="translate(28.957 56.306)"/><path id="Path_5122" fill="#49423d" d="M151.47,275.524c0-.759.844-1.374,1.88-1.374s1.868.615,1.868,1.374-.844,1.374-1.868,1.374S151.47,276.284,151.47,275.524Z" data-name="Path 5122" transform="translate(31.108 56.306)"/><path id="Path_5123" fill="#49423d" d="M166,275.524c0-.759.844-1.374,1.868-1.374s1.88.615,1.88,1.374-.844,1.374-1.88,1.374S166,276.284,166,275.524Z" data-name="Path 5123" transform="translate(34.092 56.306)"/><path id="Path_5124" fill="#49423d" d="M177.94,275.524c0-.759.832-1.374,1.868-1.374s1.868.615,1.868,1.374-.832,1.374-1.868,1.374S177.94,276.284,177.94,275.524Z" data-name="Path 5124" transform="translate(36.544 56.306)"/><path id="Path_5125" fill="#49423d" d="M148.065,243.012l2.76-2.833a4.5,4.5,0,0,1,3.17-1.386l8.281-.193.108-.53-8.293.193a5.665,5.665,0,0,0-3.99,1.748l-2.772,2.845Z" data-name="Path 5125" transform="translate(30.257 48.896)"/><path id="Path_5126" fill="#49423d" d="M151.223,242.714l-.229-2.64-3.158-.145-2.893,1.941a1.249,1.249,0,0,0,.1,2.121l2.338,1.278a1.073,1.073,0,0,0,1.205-.145Z" data-name="Path 5126" transform="translate(29.655 49.278)"/><path id="Path_5127" fill="#ff9c43" d="M276.585,140.37c.8,0,21.865,2.941,21.865,2.941s-2.929,51.457-8.534,50.626-13.6-4.821-13.6-4.821Z" data-name="Path 5127" transform="translate(56.748 28.831)"/><path id="Path_5128" fill="#c64e2a" d="M298.777,143.436c-.181,2.507-2.953,5.665-24.047-.771l1.013-2.9Z" data-name="Path 5128" transform="translate(56.422 28.706)"/><path id="Path_5129" fill="#f28236" d="M287.156,145.565a23.444,23.444,0,0,1-10.571-5.2l-.265,48.793s7.847,3.93,13.44,4.821C283.528,182.233,283.612,162.235,287.156,145.565Z" data-name="Path 5129" transform="translate(56.748 28.831)"/><path id="Path_5130" fill="#525e63" d="M302.754,131.278c-8.305,3.459-16.731-1.037-22.263-9.727-1.591-2.507-3.749-4.255-5.641-7.594L278.273,71.6c2.784.506,19.141,9.643,26.12,58.991Z" data-name="Path 5130" transform="translate(56.446 14.708)"/><path id="Path_5131" fill="#384549" d="M275.207,77.831l-.337,34.847c1.892,3.339,3.616,6.232,5.243,8.739,5.533,8.691,14.356,12.054,22.661,8.582l.193-.084c-2.616-1.6,2.411-19.286-1.458-17.442C278.39,123.358,290.9,77.144,275.207,77.831Z" data-name="Path 5131" transform="translate(56.451 15.986)"/><path id="Path_5132" fill="#85a1aa" d="M303.915,109.29s-25.9,1.205-26.518,5.424,5.87,5.762,5.87,5.762-3.025,5.255.808,6.316S305.856,122.983,303.915,109.29Z" data-name="Path 5132" transform="translate(56.961 22.448)"/><path id="Path_5133" fill="#678991" d="M297.4,114.322c-4.822,0-8.872-1.446-10.848-3.532-4.822.832-8.835,2.013-9.052,3.616-.567,4.171,5.87,5.762,5.87,5.762s-3.025,5.255.808,6.316c3.387.94,17.767-2.772,19.708-13.139A20.8,20.8,0,0,1,297.4,114.322Z" data-name="Path 5133" transform="translate(56.983 22.757)"/><path id="Path_5134" fill="#ffcd9c" d="M283.42,121.361A79.181,79.181,0,0,1,313.856,96.82l.82.542s-1.531,30.472-18.973,30.363C284.854,128.823,283.42,121.361,283.42,121.361Z" data-name="Path 5134" transform="translate(58.206 19.887)"/><path id="Path_5135" fill="#f4ad7d" d="M310.135,110.957c-7.811,8-16.3,12.391-18.936,9.8-2.242-2.182.41-8.643,6.027-15.417a74.469,74.469,0,0,0-13.765,14.235s1.434,7.461,12.283,6.364c9.643.06,14.4-9.2,16.755-17.514C311.714,109.306,310.954,110.149,310.135,110.957Z" data-name="Path 5135" transform="translate(58.215 21.637)"/><path id="Path_5136" fill="#f4ad7d" d="M312.783,104.257c-8.643,11.475-19.141,18.153-23.432,14.923a5.412,5.412,0,0,1-1.8-4.291,54.007,54.007,0,0,0-4.134,5.3s1.434,7.461,12.283,6.364c12.222.072,16.634-14.862,18.177-23.806C313.518,103.2,313.169,103.7,312.783,104.257Z" data-name="Path 5136" transform="translate(58.206 21.105)"/><path id="Path_5137" fill="#525e63" d="M293.307,248.855c-.832-13.187-6.316-18.081-4.592-32.256,3.4-27.724-1.374-75.046-1.374-75.046L263.8,141.48h-.9l-23.686.072s-4.821,47.3-1.386,75.046c1.736,14.163-3.773,19.069-4.6,32.256-1.205,19.961,1.808,26.928-3.459,61.245l3.508-.832c2.085-20.491,15.5-59.449,15.5-59.449-1.567-5.75-7.413-18.358-1.9-30.219,8.148-17.49,10-36.9,13.741-48.926a2.218,2.218,0,0,1,2.29-1.651h.9a2.218,2.218,0,0,1,2.278,1.651c3.725,12.054,5.569,31.436,13.681,48.926,5.484,11.861-.325,24.469-1.892,30.219,0,0,13.355,38.958,15.441,59.449l3.484.832C291.523,275.783,294.549,268.815,293.307,248.855Z" data-name="Path 5137" transform="translate(47.186 29.059)"/><path id="Path_5138" fill="#384549" d="M237.21,146.735s27.724,3.978,49.01.374l.506-9.968-49.517,3.785Z" data-name="Path 5138" transform="translate(48.716 28.168)"/><path id="Path_5139" fill="#384549" d="M280.187,245.276c1.784-5.75,8.064-21.359,1.82-33.208-9.233-17.5-11.331-36.908-15.573-48.938a2.519,2.519,0,0,0-2.616-1.627v.06h-1.037v-.06a2.531,2.531,0,0,0-2.6,1.651c-4.255,12.054-6.376,31.436-15.67,48.938-6.28,11.849-.265,26.952,1.519,32.7,0,0-7.16,23.517-12.379,43.695-.482,5.472-2.772,9.643-3.978,17.5l3.508-.832c2.085-20.491,15.5-59.449,15.5-59.449-1.567-5.75-7.413-18.358-1.9-30.219,8.148-17.49,10-36.9,13.741-48.926a2.218,2.218,0,0,1,2.29-1.651h.9a2.218,2.218,0,0,1,2.278,1.651c3.725,12.054,5.569,31.436,13.681,48.926,5.484,11.861-.325,24.469-1.892,30.219,0,0,13.355,38.958,15.441,59.449l3.484.832c-1.205-7.9-1.965-14.332-2.411-19.816a323.938,323.938,0,0,0-14.1-40.9Z" data-name="Path 5139" transform="translate(47.168 33.169)"/><path id="Path_5140" fill="#525e63" d="M214.7,131.763c9.2,3.459,17.972-.277,24.107-8.98,1.772-2.5,4.725-5,6.822-8.341l-1.386-45.2C221.98,75.17,218.859,110.162,214.7,131.763Z" data-name="Path 5140" transform="translate(44.093 14.223)"/><path id="Path_5141" fill="#384549" d="M244.252,69.24c-.289.072-.567.181-.856.265-.639,6.63-3.869,12.054-7.353,20.491-5.882,14.127-1.012,31.074-14.151,33.22-.687,3.93-6.521,5.159-7.232,8.594,9.2,3.459,18.985.108,25.12-8.582,1.76-2.507,3.713-5.4,5.81-8.739Z" data-name="Path 5141" transform="translate(44.085 14.223)"/><path id="Path_5142" fill="#85a1aa" d="M216,107.3s10.619,23.673,14.706,22.673,3.23-7.558,3.23-7.558,6.027.9,5.593-3.05S228.054,100.534,216,107.3Z" data-name="Path 5142" transform="translate(44.36 21.682)"/><path id="Path_5143" fill="#678991" d="M239.162,118.353c-.169-1.591-2.049-4.942-5.026-7.943a3.966,3.966,0,0,1-2.411,4.641c-3.4,1.35-9.293-.675-14.175-4.617,3.267,6.75,9.764,19.286,12.753,18.527,4.1-.976,3.23-7.558,3.23-7.558S239.56,122.319,239.162,118.353Z" data-name="Path 5143" transform="translate(44.679 22.678)"/><path id="Path_5144" fill="#ffcd9c" d="M235.879,282.91H220.8s10.426-5.34,13.2-5.34C235.71,277.606,235.879,282.91,235.879,282.91Z" data-name="Path 5144" transform="translate(45.346 57.008)"/><path id="Path_5145" fill="#ffcd9c" d="M282,282.91h11.427s-7.317-5.34-9.414-5.34C282.711,277.606,282,282.91,282,282.91Z" data-name="Path 5145" transform="translate(57.915 57.008)"/><path id="Path_5146" fill="#525e63" d="M238.8,159.118c-1.724-1.205-1.41-8.763-2.9-28.17S224.38,76.779,238.58,70.993c13.6-5.593,33.051-10.7,50.626,2.519,7.232,5.448,4.822,31.822,2.724,49.42-1.049,8.751-2.567,37.547-6.2,38.15C276.332,162.6,247.15,165.084,238.8,159.118Z" data-name="Path 5146" transform="translate(47.455 13.386)"/><path id="Path_5147" fill="#678991" d="M258.1,160.974l-1.205-.108c0-.133,1.205-13.85.4-19.129s-.82-33.594.2-39.548c.976-5.653-2.411-28.688-2.411-28.929l1.205-.169c.133.952,3.411,23.444,2.411,29.291s-1,33.75-.2,39.163S258.152,160.347,258.1,160.974Z" data-name="Path 5147" transform="translate(52.388 15.014)"/><path id="Path_5148" fill="#384549" d="M284.83,119.78c-3.616,1.844-9.185,6.569-25.06,11.077,0,0,19.455-2.266,23.384-5.038Z" data-name="Path 5148" transform="translate(53.349 24.603)"/><path id="Path_5149" fill="#384549" d="M289.793,116.9c-.976,8.751-2.411,37.547-5.8,38.15-8.835,1.579-34.064,6.256-41.887.289-1.6-1.205-3.411-10.945-4.821-30.351-.651-8.944-3.917-21.311-5.967-32.641.952,11.752,3.255,25.59,3.99,35.173,1.495,19.406,1.688,26.434,3.411,27.724,8.353,5.967,35.787,5.171,47.01,1.892,3.532-1.037,5.581-29.7,6.63-38.463,1.205-10.523,2.206-23.89,1.555-34.341C293.011,95.07,290.817,107.738,289.793,116.9Z" data-name="Path 5149" transform="translate(47.507 17.322)"/><path id="Path_5150" fill="#384549" d="M235.75,70.533s2.483,33.558,49.577,89.282a11.078,11.078,0,0,0,2.146-3.3c-12.054-14.464-38.078-49.794-50.119-86.642Z" data-name="Path 5150" transform="translate(48.416 14.353)"/><path id="Path_5151" fill="#85a1aa" d="M246.65,66.987l10.607,9.089,13.006-9.836S261.3,62.624,246.65,66.987Z" data-name="Path 5151" transform="translate(50.655 13.318)"/><path id="Path_5152" fill="#ffcd9c" d="M237.356,121.253A86.546,86.546,0,0,0,204.631,96.29l-1.941,1s1.712,30.46,21.034,30.363C235.753,128.751,237.356,121.253,237.356,121.253Z" data-name="Path 5152" transform="translate(41.627 19.779)"/><path id="Path_5153" fill="#f4ad7d" d="M222.41,106.09c5.484,7,7.859,12.789,4.556,16.08-2.965,2.965-9.776,3.315-16.116-1.013a15.6,15.6,0,0,0,11.2,4.484c12.054,1.1,13.633-6.376,13.633-6.376A76.782,76.782,0,0,0,222.41,106.09Z" data-name="Path 5153" transform="translate(43.303 21.791)"/><path id="Path_5154" fill="#f4ad7d" d="M234.247,121.392c-5.557,4.207-15.971-.181-23.252-9.8A30.834,30.834,0,0,1,204.57,96.32l-1.88.964s1.712,30.46,21.034,30.363c12.054,1.1,13.633-6.376,13.633-6.376s-.47-.639-1.386-1.724a7.581,7.581,0,0,1-1.724,1.844Z" data-name="Path 5154" transform="translate(41.627 19.785)"/><path id="Path_5155" fill="#ffcd9c" d="M249.13,70.566,250.7,51.979,262.57,44.59,265.7,70.12C258.737,74.809,254.265,75.218,249.13,70.566Z" data-name="Path 5155" transform="translate(51.164 9.161)"/><path id="Path_5156" fill="#936947" d="M236.27,70.086s3.158,34.739,56.58,95.164l2.085-3.411s-40.223-43.128-56.267-92.259Z" data-name="Path 5156" transform="translate(48.523 14.293)"/><rect id="Rectangle_1089" width="6.437" height="4.93" fill="#936947" data-name="Rectangle 1089" transform="translate(339.04 178.596) rotate(-42.32)"/><path id="Path_5157" fill="#ff9c43" d="M287.27,148.075l-1.856-2.025-2.664,2.435,1.856,2.037Z" data-name="Path 5157" transform="translate(58.069 29.998)"/><path id="Path_5158" fill="#384549" d="M234.33,108.37c2.085,1.9,4.93,8.534,12.885,11.367,0,0-9.643-2.411-11.933-5.3Z" data-name="Path 5158" transform="translate(48.125 22.26)"/><path id="Path_5159" fill="#384549" d="M235.7,128.42c3.218,1.929,8.2,6.786,22.468,11.668,0,0-17.55-2.724-21.058-5.593Z" data-name="Path 5159" transform="translate(48.406 26.377)"/><path id="Path_5160" fill="#384549" d="M283.878,105.39c-2.278,1.892-5.364,8.522-14.018,11.367,0,0,10.511-2.411,12.982-5.3Z" data-name="Path 5160" transform="translate(55.422 21.648)"/><rect id="Rectangle_1090" width="7.329" height="3.664" fill="#85a1aa" data-name="Rectangle 1090" transform="translate(307.02 178.567)"/><path id="Path_5161" fill="#ffdb45" d="M286.834,186.8c-1.205-.506-2.555-6.81-2.724-11.957l1.326-.193s1.326,15.537,5.171,9.643C290.607,184.305,289.594,188.03,286.834,186.8Z" data-name="Path 5161" transform="translate(58.348 35.872)"/><path id="Path_5162" fill="#c9604f" d="M286.108,73.387A40.163,40.163,0,0,0,272.282,67.6a23.469,23.469,0,0,0-3.749-.88l-1.1-8.884c-2.29-.2-4.677-.338-7.148-.338s-5.026.133-7.389.362l-.832,9.884c-.976.229-1.977.494-3.013.808l.145.133a84.193,84.193,0,0,0-9.848,3.254h-.121l-.482.157-2.206.458v.265l-.663.277a.811.811,0,0,0,0,.121c-.325.157-.627.337-.94.506,5.123,3.158,14.525,5.28,25.313,5.28C271.427,78.98,281.118,76.714,286.108,73.387Z" data-name="Path 5162" opacity=".5" transform="translate(48.25 11.812)"/><path id="Path_5163" fill="#8e553c" d="M241.132,18.9c-.193-3.363,2.676-8.148,14.344-9.209,19.033-1.736,17.586,9.028,17.586,9.028Z" data-name="Path 5163" transform="translate(49.52 1.955)"/><path id="Path_5164" fill="#8e553c" d="M265.54,35.218l-1.41-22.323s14.73-1.76,3.459,22.794Z" data-name="Path 5164" transform="translate(54.245 2.646)"/><path id="Path_5165" fill="#723d2a" d="M245.636,33.464,244.2,13.78s-10.848,1.061-.579,22.492Z" data-name="Path 5165" transform="translate(49.126 2.833)"/><path id="Path_5166" fill="#ffcd9c" d="M242.87,15.767l.675,20.817,1.121,16.489L253.1,67.719h9.956l7.4-14.645V32.582l.579-16.3C267.062,7.751,253.489,11.85,242.87,15.767Z" data-name="Path 5166" transform="translate(49.879 2.317)"/><path id="Path_5167" fill="#f4ad7d" d="M243.021,23.3s25.192,2.338,27.338-8.016L242.9,18.631Z" data-name="Path 5167" transform="translate(49.885 3.141)"/><path id="Path_5168" fill="#f4ad7d" d="M251.81,45.865a7.449,7.449,0,0,0,3.17,1.495,5.159,5.159,0,0,0,3.471-1.8c.157-1-1.446-11.969-3.291-12.054C253.739,33.4,251.774,44.419,251.81,45.865Z" data-name="Path 5168" transform="translate(51.715 6.885)"/><path id="Path_5169" fill="#ffcd9c" d="M253.008,46.3c0,.241,1.314.663,1.772.663.8,0,1.76-.338,1.8-.8.1-1.085.88-13.464-1.519-13.38C252.477,32.911,253.008,44.735,253.008,46.3Z" data-name="Path 5169" transform="translate(51.951 6.737)"/><path id="Path_5170" fill="#5b371e" d="M247.768,37.563l3.7.181s-.362-3.435-1.88-3.484C248.961,34.3,247.442,35.152,247.768,37.563Z" data-name="Path 5170" transform="translate(50.875 7.039)"/><path id="Path_5171" fill="#5b371e" d="M261.809,37.756l-3.749-.133s.663-3.387,2.206-3.3C260.9,34.356,262.363,35.381,261.809,37.756Z" data-name="Path 5171" transform="translate(52.998 7.051)"/><path id="Path_5172" fill="#8e553c" d="M245.627,33.77c1.675.145,6.593-.844,7.943-2.35.6-.687-.193-4-1.784-2.965a18.96,18.96,0,0,1-6.449,3.11C244.3,31.8,244.458,33.661,245.627,33.77Z" data-name="Path 5172" transform="translate(50.244 5.806)"/><path id="Path_5173" fill="#8e553c" d="M265.01,33.223c-1.676.434-6.835.3-8.438-.964-.723-.567-.434-3.99,1.338-3.23a19.768,19.768,0,0,0,7.051,2.013C266.047,31.054,266.18,32.922,265.01,33.223Z" data-name="Path 5173" transform="translate(52.617 5.943)"/><path id="Path_5174" fill="#723d2a" d="M242.027,30.157c-.675,11.246,1.121,30.134-.1,34.112,0,0,1.808,7.353,15.2,6.991,7.847-.2,11.6-.591,15.6-6.786-3.315-9.1-.47-21.528-.325-32.28l-1.446-8.064-2.1,22.348S255.6,51.2,245.137,46.249l-1.748-21.142Z" data-name="Path 5174" transform="translate(49.673 4.959)"/><path id="Path_5175" fill="#8e553c" d="M264.035,13.777C262.83,17.321,244.171,15.308,240,6.4,251.776,14.946,266.868,5.725,264.035,13.777Z" data-name="Path 5175" transform="translate(49.289 1.318)"/><path id="Path_5176" fill="#8e553c" d="M262.21,14.155c-.458,3.7-20.491,4.3-25.53-4.195C250.711,13.383,263.258,5.741,262.21,14.155Z" data-name="Path 5176" transform="translate(48.607 2.049)"/><path id="Path_5177" fill="#723d2a" d="M236.8,10.14c5.316,8.269,24.927,7.642,25.385,3.978a4.556,4.556,0,0,0-.253-2.507C259,14.528,244.273,15.456,236.8,10.14Z" data-name="Path 5177" transform="translate(48.632 2.086)"/><path id="Path_5178" fill="#ceb3a3" d="M248.716,52.041,241.544,37.36c-.916,5.533-1.049,10.246.591,13.6Z" data-name="Path 5178" transform="translate(49.469 7.676)"/><path id="Path_5179" fill="#ceb3a3" d="M262.36,50.841l5.593-13.151a25.469,25.469,0,0,1,1.724,13.259Z" data-name="Path 5179" transform="translate(53.881 7.744)"/><path id="Path_5180" fill="#ffece1" d="M244.28,50.276s9.788-10.282,12.789-9.884,12.439,9.643,12.439,9.643l-.964,15.67s-14.718,7.232-24-1.639Z" data-name="Path 5180" transform="translate(50.168 8.296)"/><path id="Path_5181" fill="#ceb3a3" d="M256.476,53.889a19.8,19.8,0,0,1-12.186-3.966l.109,12.861c9.281,8.859,24.252,1.567,24.252,1.567l.8-15.091A19.551,19.551,0,0,1,256.476,53.889Z" data-name="Path 5181" transform="translate(50.17 10.12)"/><path id="Path_5182" fill="#ba9a8a" d="M256.476,56.916c5.111,0,9.643-3.255,12.885-6.027l.084-1.579a19.551,19.551,0,0,1-12.97,4.568,19.8,19.8,0,0,1-12.186-3.966v1.519C247.448,53.89,251.739,56.916,256.476,56.916Z" data-name="Path 5182" transform="translate(50.17 10.13)"/><path id="Path_5183" fill="#75665e" d="M261.85,54.134c1.724-5.882,5.762-9.872,9.04-8.92s4.532,6.5,2.821,12.379-5.762,9.884-9.04,8.932S260.139,60.028,261.85,54.134Z" data-name="Path 5183" transform="translate(53.619 9.26)"/><path id="Path_5184" fill="#594a43" d="M271.079,57.886a7.594,7.594,0,0,1-7.232-9.016,18.61,18.61,0,0,0-1.977,4.484c-1.712,5.894-.446,11.439,2.821,12.391s7.027-2.772,8.847-8.317a7.16,7.16,0,0,1-2.459.458Z" data-name="Path 5184" transform="translate(53.624 10.04)"/><path id="Path_5185" fill="#aa968d" d="M264.983,55.178c1.615-5.521,4.99-9.39,7.546-8.643s3.339,5.834,1.724,11.355-4.99,9.4-7.546,8.643S263.368,60.711,264.983,55.178Z" data-name="Path 5185" transform="translate(54.247 9.542)"/><path id="Path_5186" fill="#75665e" d="M249.96,54.741c-2.013-5.786-6.172-9.715-9.209-8.546-4.339,1.675-5.593,7.437-3.616,13.259s7.787,8.8,10.848,7.726S251.973,60.527,249.96,54.741Z" data-name="Path 5186" transform="translate(48.514 9.448)"/><path id="Path_5187" fill="#594a43" d="M249.75,54.277a18.274,18.274,0,0,0-3.363-6.027,11.307,11.307,0,0,1,.289,2.592c0,5.1-3.279,9.221-7.317,9.221a6.232,6.232,0,0,1-2.109-.386c2.23,5.292,7.642,8,10.583,6.979S251.763,60.063,249.75,54.277Z" data-name="Path 5187" transform="translate(48.724 9.913)"/><path id="Path_5188" fill="#aa968d" d="M247.16,55.528c-1.929-5.557-5.894-9.233-8.847-8.209s-3.785,6.376-1.844,11.933,5.882,9.233,8.847,8.2S249.089,61.085,247.16,55.528Z" data-name="Path 5188" transform="translate(48.349 9.686)"/><path id="Path_5189" fill="#ddc4b8" d="M250.063,61.871a2.073,2.073,0,0,0-.338,1.555,1.205,1.205,0,0,0,.8,1.073c2.881.639,7.919,1.061,11.692-.844a1.483,1.483,0,0,0,.675-1.205,1.724,1.724,0,0,0-.374-1.374l-5.46-5.7a1.29,1.29,0,0,0-2.073.193Z" data-name="Path 5189" transform="translate(51.28 11.286)"/><path id="Path_5190" fill="#ffcd9c" d="M243.365,32.276c-1.205-1.868-3.688-2.411-3.725-.06-.108,7.509,3.351,8.522,3.351,8.522C243.69,38.435,244.221,34.132,243.365,32.276Z" data-name="Path 5190" transform="translate(49.215 6.299)"/><path id="Path_5191" fill="#f4ad7d" d="M242.671,33.177c-.8-1.205-2.411-1.555-2.411,0-.072,4.821,2.146,5.46,2.146,5.46C242.864,37.155,243.213,34.382,242.671,33.177Z" data-name="Path 5191" transform="translate(49.342 6.604)"/><path id="Path_5192" fill="#ffcd9c" d="M242.583,35.734c-.53-.7-1.579-.916-1.6,0,0,2.809,1.446,3.206,1.446,3.206a5.243,5.243,0,0,0,.157-3.206Z" data-name="Path 5192" transform="translate(49.491 7.217)"/><path id="Path_5193" fill="#ffcd9c" d="M266.155,32.174c1.205-2.1,3.616-3.146,3.616-.808.241,7.437-3.146,9.137-3.146,9.137C265.963,38.358,265.348,34.2,266.155,32.174Z" data-name="Path 5193" transform="translate(54.582 6.172)"/><path id="Path_5194" fill="#f4ad7d" d="M266.654,33.055c.723-1.205,2.158-1.88,2.206-.482.145,4.472-1.892,5.484-1.892,5.484a9.5,9.5,0,0,1-.313-5Z" data-name="Path 5194" transform="translate(54.723 6.532)"/><path id="Path_5195" fill="#ffcd9c" d="M266.5,35.319c.627-.8,1.892-1.205,1.941-.3.157,2.8-1.627,3.435-1.627,3.435a4.291,4.291,0,0,1-.313-3.134Z" data-name="Path 5195" transform="translate(54.698 7.09)"/><path id="Path_5196" fill="#d8ad4c" d="M288.481,146.13s-.289-11.174,2.941-11.27,3.026,10.607,3.026,10.607A6.606,6.606,0,0,1,288.481,146.13Z" data-name="Path 5196" transform="translate(59.245 27.7)"/><path id="Path_5197" fill="#edcc8c" d="M282.554,144.053s-.482-8.655,2.7-8.088,2.555,10.125,2.555,10.125a16.6,16.6,0,0,1-5.255-2.037Z" data-name="Path 5197" transform="translate(58.023 27.921)"/><path id="Path_5198" fill="#8e553c" d="M273.3,15.173c-.133,8.028-33.654,8.438-42.333-.35C253.161,17.186,273.459,4.843,273.3,15.173Z" data-name="Path 5198" transform="translate(47.435 2.26)"/><path id="Path_5199" fill="#594a43" d="M245.964,60.433c.639-2.338.458-4.243-.4-4.243s-3.616-.121-4.291,2.218,1.133,6.244,1.989,6.244S245.325,62.759,245.964,60.433Z" data-name="Path 5199" transform="translate(49.521 11.543)"/><path id="Path_5200" fill="#594a43" d="M238.5,52.064c-1.205,1.205-2.3,1.615-2.483,1.037s0-3.471,1.205-4.617a2.121,2.121,0,0,1,3.134.458C240.492,49.521,239.685,50.919,238.5,52.064Z" data-name="Path 5200" transform="translate(48.46 9.859)"/><path id="Path_5201" fill="#ba9a8a" d="M248.06,53.234s3.978-5.81,5.364-4.99-2.073,6.69-2.073,6.69Z" data-name="Path 5201" transform="translate(50.945 9.895)"/><path id="Path_5202" fill="#ba9a8a" d="M262.641,52.793s-3.737-5.328-5.038-4.58,1.953,6.135,1.953,6.135Z" data-name="Path 5202" transform="translate(52.841 9.89)"/><path id="Path_5203" fill="#594a43" d="M265.172,60.134c-.844-2.182-.88-4.026-.1-4.134s3.339-.567,4.171,1.615-.35,6.184-1.145,6.292S266,62.316,265.172,60.134Z" data-name="Path 5203" transform="translate(54.323 11.481)"/><path id="Path_5204" fill="#594a43" d="M270.977,51.173c1.205.964,2.278,1.278,2.411.7s-.35-3.363-1.555-4.327a1.917,1.917,0,0,0-2.821.832C268.88,48.955,269.772,50.209,270.977,51.173Z" data-name="Path 5204" transform="translate(55.245 9.702)"/><path id="Path_5205" fill="#384549" d="M249.06,159.762a23.143,23.143,0,0,0,21.335-1.3s-3.881,6.69-11.234,6.316S249.06,159.762,249.06,159.762Z" data-name="Path 5205" transform="translate(51.15 32.547)"/><path id="Path_5206" fill="#ffcd9c" d="M308.345,100.89c2.724-1.953,10.547-1.772,10.065-4.532-.422-2.471-4.737-5.484-11.27,2.411Z" data-name="Path 5206" transform="translate(63.078 19.241)"/><path id="Path_5207" fill="#f4ad7d" d="M310.47,95.668c.482,4.448,5.822,3.339,7.461,2.6s2.411-4.376,1.374-5.472S310.3,93.968,310.47,95.668Z" data-name="Path 5207" transform="translate(63.761 19.002)"/><path id="Path_5208" fill="#f4ad7d" d="M311.771,95.384c.434,4.086,4.195,3.339,5.7,2.652s2.17-4.014,1.266-5.026S311.6,93.817,311.771,95.384Z" data-name="Path 5208" transform="translate(64.028 19.045)"/><path id="Path_5209" fill="#af462e" d="M314.979,95.728l-7.594,32.75a3.447,3.447,0,0,0,3.363,4.231h9.522a2.712,2.712,0,0,0,2.7-3.038L318.776,93.51Z" data-name="Path 5209" transform="translate(63.11 19.208)"/><path id="Path_5210" fill="#e06c4c" d="M314.775,96.579l-6.292,30.749a3.544,3.544,0,0,0,.542,2.748,2.736,2.736,0,0,0,2.242,1.205h7.9a2.121,2.121,0,0,0,1.688-.856,2.748,2.748,0,0,0,.555-1.989L317.934,94.53Z" data-name="Path 5210" transform="translate(63.338 19.417)"/><path id="Path_5211" fill="#ffdecc" d="M313.956,95.581l-.386-7.329,1.145-2.772h7.931l.145,1.037-4.243,2.5-.759,5.026Z" data-name="Path 5211" transform="translate(64.398 17.559)"/><path id="Path_5212" fill="#ffdecc" d="M318.382,87.68l2.9,4.99-.506.759-4.171-3.6Z" data-name="Path 5212" transform="translate(65.023 18.01)"/><path id="Path_5213" fill="#ffcd9c" d="M314.671,95.3c.458-.7,1.88-2.628,1.374-3.206s-1.772.289-2.5.844c-1.868,1.434-4.713,3.267-3.737,4.3S311.815,99.65,314.671,95.3Z" data-name="Path 5213" transform="translate(63.586 18.877)"/><path id="Path_5214" fill="#ffcd9c" d="M314.2,93.983a2.073,2.073,0,0,0,1.784,1.3c.591,0,.265-.53-.169-1.41s-.434-1.989-1.025-1.965S313.755,93.115,314.2,93.983Z" data-name="Path 5214" transform="translate(64.491 18.879)"/><path id="Path_5215" fill="#ffcd9c" d="M317.391,94.551a2.11,2.11,0,0,0,1.471-1.651c0-.6-.494-.313-1.41,0s-2.037.229-2.061.832S316.487,94.889,317.391,94.551Z" data-name="Path 5215" transform="translate(64.772 19.01)"/><path id="Path_5216" fill="#ffcd9c" d="M317.267,96.3a2.411,2.411,0,0,0,1.736-1.9c0-.6-.88,0-1.8.169s-1.519.338-1.507.94S316.4,96.384,317.267,96.3Z" data-name="Path 5216" transform="translate(64.836 19.336)"/><path id="Path_5217" fill="#ffcd9c" d="M317.11,97.663a1.928,1.928,0,0,0,1.615-1.495c.084-.651-.579-.2-1.483,0s-1.567.325-1.651.976S316.194,97.831,317.11,97.663Z" data-name="Path 5217" transform="translate(64.812 19.684)"/><rect id="Rectangle_1091" width="1.832" height="2.652" fill="#e06c4c" data-name="Rectangle 1091" transform="translate(385.951 102.701) rotate(-4.83)"/><path id="Path_5218" fill="#ffbd7b" d="M318.939,119.428a4.58,4.58,0,0,0-4.568-3.978,3.7,3.7,0,0,0-3.869,3.978,4.58,4.58,0,0,0,4.568,3.978,3.7,3.7,0,0,0,3.869-3.978Z" data-name="Path 5218" transform="translate(63.766 23.713)"/><path id="Path_5219" fill="#ffbd7b" d="M310.48,117.679s7.015-3.978,7.955-2.17l-1.507-13.259Z" data-name="Path 5219" transform="translate(63.764 21.003)"/><path id="Path_5220" fill="#ffcd9c" d="M206.917,100.42c-2.676-1.953-10.342-1.772-9.884-4.532.422-2.483,4.653-5.484,11.053,2.411Z" data-name="Path 5220" transform="translate(40.461 19.144)"/><path id="Path_5221" fill="#f4ad7d" d="M204.491,95.2c-.47,4.448-5.713,3.339-7.317,2.6s-2.314-4.375-1.35-5.472S204.66,93.5,204.491,95.2Z" data-name="Path 5221" transform="translate(40.127 18.906)"/><path id="Path_5222" fill="#f4ad7d" d="M202.9,94.914c-.422,4.074-4.122,3.327-5.593,2.652s-2.133-4.014-1.205-5.026S203.058,93.347,202.9,94.914Z" data-name="Path 5222" transform="translate(40.186 18.948)"/><rect id="Rectangle_1092" width="1.579" height="4.797" fill="#827468" data-name="Rectangle 1092" transform="translate(238.567 109.475)"/><path id="Path_5223" fill="#ffdecc" d="M201.892,95.3l.313-6.159,4.388-1.169.759-1.519-6.63-2.652h-8.7l.362,2.423,5.352,2.507.687,5.014Z" data-name="Path 5223" transform="translate(39.436 17.214)"/><path id="Path_5224" fill="#ffdecc" d="M196.868,87.16l-2.628,4.99.458.747,3.761-3.592Z" data-name="Path 5224" transform="translate(39.891 17.904)"/><path id="Path_5225" fill="#66a4c4" d="M197.07,94.54h4.363l5.689,39.355a2.206,2.206,0,0,1-2.182,2.519h-6.678a2.965,2.965,0,0,1-2.953-3.086Z" data-name="Path 5225" transform="translate(40.111 19.419)"/><path id="Path_5226" fill="#89c2e5" d="M197.787,94.75l2.555.133,4.93,37.535a2.688,2.688,0,0,1-.3,1.591,1.205,1.205,0,0,1-.976.7l-6.027.229a1.531,1.531,0,0,1-1.205-.832,3.616,3.616,0,0,1-.482-1.965Z" data-name="Path 5226" transform="translate(40.31 19.462)"/><path id="Path_5227" fill="#abe3ff" d="M204.491,134.208l-6.027.229a1.555,1.555,0,0,1-1.3-.82,3.616,3.616,0,0,1-.482-1.977l1.326-36.86h-.217l-1.579,37.367a3.616,3.616,0,0,0,.482,1.965,1.531,1.531,0,0,0,1.205.832l6.027-.229a1.121,1.121,0,0,0,.916-.6.952.952,0,0,1-.35.1Z" data-name="Path 5227" transform="translate(40.295 19.469)"/><path id="Path_5228" fill="#4a869e" d="M201.335,95.6H196.67v1.519h4.882Z" data-name="Path 5228" transform="translate(40.39 19.637)"/><path id="Path_5229" fill="#abe3ff" d="M201.564,94.27h-5.207l-.1,2.363h5.593Z" data-name="Path 5229" transform="translate(40.306 19.364)"/><path id="Path_5230" fill="#8fcde5" d="M199.213,95.905a4.074,4.074,0,0,1-2.881-1.205l-.072,1.784h5.593l-.181-1.422a4.122,4.122,0,0,1-2.459.844Z" data-name="Path 5230" transform="translate(40.306 19.452)"/><path id="Path_5231" fill="#ffcd9c" d="M199.918,94.828c-.458-.7-1.844-2.64-1.35-3.206s1.736.289,2.411.844c1.832,1.434,4.629,3.267,3.616,4.291S202.726,99.179,199.918,94.828Z" data-name="Path 5231" transform="translate(40.759 18.782)"/><path id="Path_5232" fill="#ffcd9c" d="M199.661,93.513a2.037,2.037,0,0,1-1.748,1.3c-.579,0-.253-.53.169-1.41s.422-1.989,1-1.965S200.095,92.645,199.661,93.513Z" data-name="Path 5232" transform="translate(40.582 18.783)"/><path id="Path_5233" fill="#ffcd9c" d="M196.724,94.082a2.1,2.1,0,0,1-1.434-1.663c0-.591.494-.3,1.386,0s1.989.229,2.013.82S197.628,94.4,196.724,94.082Z" data-name="Path 5233" transform="translate(40.107 18.913)"/><path id="Path_5234" fill="#ffcd9c" d="M196.79,95.829a2.411,2.411,0,0,1-1.7-1.9c0-.6.856,0,1.748.157s1.495.35,1.483.952S197.694,95.95,196.79,95.829Z" data-name="Path 5234" transform="translate(40.066 19.239)"/><path id="Path_5235" fill="#ffcd9c" d="M196.962,97.181a1.9,1.9,0,0,1-1.591-1.483c-.084-.651.567-.217,1.458,0s1.531.325,1.615.976S197.854,97.338,196.962,97.181Z" data-name="Path 5235" transform="translate(40.122 19.587)"/><path id="Path_5236" fill="#abe3ff" d="M197.61,127.475v-5.436l5.677-2.4v2.652Z" data-name="Path 5236" transform="translate(40.584 24.574)"/><path id="Path_5237" fill="#abe3ff" d="M197.61,121.394V115.97l5.364.374V119Z" data-name="Path 5237" transform="translate(40.584 23.82)"/><path id="Path_5238" fill="#b2ccd3" d="M232.4,248.138c2.953.482,6.027.916,9.305,1.278.554-1.844,1.1-3.616,1.615-5.316-3.508-.35-7.232-.8-10.993-1.35C232.354,244.546,232.378,246.318,232.4,248.138Z" data-name="Path 5238" transform="translate(47.714 49.857)"/><path id="Path_5239" fill="#b2ccd3" d="M232.41,251.458c2.543.4,5.207.747,7.967,1.061.193-.651.374-1.29.554-1.929-2.748-.277-5.6-.615-8.522-1Z" data-name="Path 5239" transform="translate(47.73 51.262)"/><path id="Path_5240" fill="#b2ccd3" d="M284.423,244.55c-3.3.783-6.678,1.471-10.053,2.037.458,1.519.928,3.1,1.4,4.713,2.628-.4,5.509-.9,8.606-1.531C284.375,248,284.411,246.3,284.423,244.55Z" data-name="Path 5240" transform="translate(56.348 50.227)"/><path id="Path_5241" fill="#b2ccd3" d="M283.964,251.56c-2.531.579-5.1,1.1-7.654,1.543.121.446.253.892.374,1.338q3.4-.53,7.292-1.3C283.976,252.6,283.976,252.09,283.964,251.56Z" data-name="Path 5241" transform="translate(56.746 51.667)"/><path id="Path_5242" fill="#723d2a" d="M241.6,12.24s23.047,14.79,31.171,1.519Z" data-name="Path 5242" transform="translate(49.618 2.517)"/><path id="Path_5243" fill="#88b3ba" d="M244.51,14.369c0-2.278.338-10.957,5.3-13.38s19.6.1,21.022,2.194,1.205,13.38,1.205,13.38Z" data-name="Path 5243" transform="translate(50.215 0.003)"/><path id="Path_5244" fill="#678991" d="M254.036,12.236a34.7,34.7,0,0,1-2.676,2.652l19.286,1.543s.2-11.234-1.205-13.259c-.687-1.013-4.448-2.109-8.715-2.712a28.928,28.928,0,0,1-6.69,11.776Z" data-name="Path 5244" transform="translate(51.622 0.098)"/><path id="Path_5245" fill="#88b3ba" d="M241.722,12.479c12.2,4.062,30.821,2.013,30.821,2.013l.35-.494a83.894,83.894,0,0,0-31.171-2.411C240.36,11.756,241.288,12.334,241.722,12.479Z" data-name="Path 5245" transform="translate(49.496 2.278)"/><path id="Path_5246" fill="#525e63" d="M269.457,13.065c-4.544.362-17.454,1.073-27.29-1.615h-.446c-1.362.181-.434.759,0,.9,12.2,4.062,30.821,2.013,30.821,2.013l.35-.494S271.639,13.547,269.457,13.065Z" data-name="Path 5246" transform="translate(49.496 2.355)"/></g></g></g></svg>