<svg xmlns="http://www.w3.org/2000/svg" width="61.077" height="67.84" viewBox="0 0 61.077 67.84"><g id="wearmasks" transform="translate(-924.621 -284.244)"><ellipse id="Ellipse_34" cx="30.539" cy="30.539" fill="#ffc400" data-name="Ellipse 34" rx="30.539" ry="30.539" transform="translate(924.621 288.033)"/><g id="Group_241" data-name="Group 241" transform="translate(924.725 284.244)"><path id="Path_395" fill="#e6b56f" d="M344.186,454.811h42.24s1.479-24.287-3.9-27.84-30.546-2.812-36.123.224S344.186,454.811,344.186,454.811Z" data-name="Path 395" transform="translate(-334.357 -390.867)"/><g id="Group_240" data-name="Group 240" transform="translate(14.902)"><path id="Path_396" fill="#3e2d4a" d="M353.421,414.713a.272.272,0,0,1-.173-.062c-.117-.095-2.825-2.375-1.343-6.969a34.554,34.554,0,0,1,1.473-3.749,13.561,13.561,0,0,0,1.5-5.908.3.3,0,0,1,.286-.264.275.275,0,0,1,.264.286,14.174,14.174,0,0,1-1.546,6.111,34,34,0,0,0-1.452,3.693c-1.362,4.223,1.064,6.289,1.168,6.374a.276.276,0,0,1-.175.488Z" data-name="Path 396" transform="translate(-351.463 -383.727)"/><ellipse id="Ellipse_36" cx="3.454" cy="3.454" fill="#3e2d4a" data-name="Ellipse 36" rx="3.454" ry="3.454" transform="translate(10.047)"/><path id="Path_397" fill="#3e2d4a" d="M353.511,411.689s1.014,2.09,5.152,2.825,7.387-.762,10.581.4,7.811-.351,8.725-1.693.724-16.209-1.8-18.7-15.718-4.574-18.579-1.656S351.7,410.014,353.511,411.689Z" data-name="Path 397" transform="translate(-351.862 -382.044)"/><ellipse id="Ellipse_37" cx="11.384" cy="11.384" fill="#3e2d4a" data-name="Ellipse 37" rx="11.384" ry="11.384" transform="translate(2.784 6.105)"/><path id="Path_398" fill="#df9f85" d="M374.235,415.7s.739,8.865,0,9.85-5.417.247-6.649,0-1.724-9.85-.985-9.85S374.093,413.723,374.235,415.7Z" data-name="Path 398" transform="translate(-355.398 -388.266)"/><path id="Path_399" fill="#df9f85" d="M358.049,399.262s.468,13.818,9.811,14.414,9.332-18.872,5.952-20.724S356.322,391.448,358.049,399.262Z" data-name="Path 399" transform="translate(-353.176 -382.2)"/><path id="Path_400" fill="#c05c5d" d="M370.822,405.9s1.784,4.253,1.325,4.535a2.728,2.728,0,0,1-2.165-.082C369.62,410.046,370.092,405.429,370.822,405.9Z" data-name="Path 400" transform="translate(-356.356 -385.885)"/><ellipse id="Ellipse_38" cx=".878" cy=".878" fill="#3e2d4a" data-name="Ellipse 38" rx=".878" ry=".878" transform="translate(9.913 20.523)"/><ellipse id="Ellipse_39" cx=".878" cy=".878" fill="#3e2d4a" data-name="Ellipse 39" rx=".878" ry=".878" transform="translate(17.449 20.109)"/><path id="Path_401" fill="#3e2d4a" d="M364.7,391.846s-3.35,1.62-3.988,4.661-.307,10.828-3.856,10.471C356.857,406.977,349.984,391.567,364.7,391.846Z" data-name="Path 401" transform="translate(-352.471 -382.152)"/><path id="Path_402" fill="#3e2d4a" d="M370.524,391.679c-.3.217,3.454.208,5.6,2.813s2.658,9.113,2.991,9.234,1.659-8.065-.7-10.525S372.254,390.441,370.524,391.679Z" data-name="Path 402" transform="translate(-356.529 -381.92)"/><path id="Path_403" fill="#c05c5d" d="M366.845,419.808a8.334,8.334,0,0,0,7.409.135,9.151,9.151,0,0,1,0,2.855c-.294.535-6.271.917-7.448-1.72C366.806,421.078,366.505,419.693,366.845,419.808Z" data-name="Path 403" transform="translate(-355.512 -389.591)"/><path id="Path_404" fill="#df9f85" d="M380.979,408.2s.895-3.459,2.454-2.228.148,4.846-1.393,5.174S380.127,409.987,380.979,408.2Z" data-name="Path 404" transform="translate(-359.196 -385.842)"/><path id="Path_405" fill="#df9f85" d="M359.945,407.4s-.633-3.516-2.28-2.406-.511,4.822,1,5.265S360.661,409.246,359.945,407.4Z" data-name="Path 405" transform="translate(-352.897 -385.595)"/><path id="Path_406" fill="#3e2d4a" d="M375.8,402.937a2.222,2.222,0,0,1,2.66.444c.869,1.121-1.153.181-1.908.306S374.807,403.726,375.8,402.937Z" data-name="Path 406" transform="translate(-357.827 -385.033)"/><path id="Path_407" fill="#3e2d4a" d="M365.963,403.159a2.223,2.223,0,0,0-2.659.453c-.865,1.125,1.154.178,1.91.3S366.961,403.944,365.963,403.159Z" data-name="Path 407" transform="translate(-354.557 -385.093)"/><path id="Path_408" fill="#fffcf6" d="M364.968,410.759l-.117,0a3.042,3.042,0,0,1,.112-6.082l.117,0a3.042,3.042,0,0,1-.112,6.082Zm-.005-5.717a2.675,2.675,0,0,0-.1,5.348l.1,0a2.675,2.675,0,0,0,.1-5.348Z" data-name="Path 408" transform="translate(-354.246 -385.567)"/><path id="Path_409" fill="#fffcf6" d="M375.309,410.178l-.116,0a3.042,3.042,0,0,1,.111-6.082l.117,0a3.042,3.042,0,0,1-.112,6.082Zm-.005-5.717a2.675,2.675,0,0,0-.1,5.348l.1,0a2.675,2.675,0,0,0,.1-5.348Z" data-name="Path 409" transform="translate(-356.997 -385.412)"/><path id="Path_410" fill="#fffcf6" d="M361.828,407.8a.2.2,0,0,1-.067-.012l-1.113-.44a.183.183,0,1,1,.134-.341l1.113.44a.183.183,0,0,1-.068.354Z" data-name="Path 410" transform="translate(-353.876 -386.184)"/><path id="Path_411" fill="#fffcf6" d="M380.093,407.138a.183.183,0,0,1-.051-.36l1.546-.443a.184.184,0,0,1,.1.353l-1.546.442A.168.168,0,0,1,380.093,407.138Z" data-name="Path 411" transform="translate(-359.031 -386.007)"/><path id="Path_412" fill="#3e2d4a" d="M367.378,390.537s.421,7.49,2.486,8.17,7.141.493,7.386-.326-3.936-7.412-6.937-8.469c-5.262-1.854-9.8,6.7-9.2,8.763s5.122.257,6.086-.008S367.185,392.018,367.378,390.537Z" data-name="Path 412" transform="translate(-354.015 -381.57)"/><path id="Path_413" fill="#c05c5d" d="M362.65,411.389s4.782-2.61,6.843-2.18,5.694.575,5.841,1.322-4.617.3-6.087.407S362.1,412.6,362.65,411.389Z" data-name="Path 413" opacity=".21" transform="translate(-354.429 -386.76)"/><path id="Path_414" fill="#c05c5d" d="M366.226,409.578a.275.275,0,0,1-.1-.533,1.214,1.214,0,0,0,.523-.294.257.257,0,0,1,.346-.146.289.289,0,0,1,.155.37c-.043.117-.208.349-.828.584A.271.271,0,0,1,366.226,409.578Z" data-name="Path 414" transform="translate(-355.317 -386.607)"/><path id="Path_415" fill="#c05c5d" d="M375.824,409.386a1.851,1.851,0,0,1-.808-.255.275.275,0,1,1,.252-.489,1.176,1.176,0,0,0,.568.192.262.262,0,0,1,.34.16.29.29,0,0,1-.172.363A.48.48,0,0,1,375.824,409.386Z" data-name="Path 415" transform="translate(-357.689 -386.614)"/><path id="Path_416" fill="#fffcf6" d="M369.9,408.809a.183.183,0,0,1-.014-.366l1.883-.147a.177.177,0,0,1,.2.169.184.184,0,0,1-.169.2l-1.883.147Z" data-name="Path 416" transform="translate(-356.318 -386.53)"/><path id="Path_417" fill="#3e2d4a" d="M366.2,385.693a.279.279,0,0,1-.126-.031,3.1,3.1,0,0,1-1.79-2.159c-.39-2,1.428-4.145,1.505-4.236a.275.275,0,0,1,.418.358c-.017.021-1.722,2.035-1.382,3.773a2.584,2.584,0,0,0,1.5,1.775.275.275,0,0,1-.126.52Z" data-name="Path 417" transform="translate(-354.86 -378.782)"/><path id="Path_418" fill="#3e2d4a" d="M372.246,386.549a.275.275,0,0,1-.177-.486c.02-.018,2.033-1.725,1.983-3.5a2.585,2.585,0,0,0-1.19-2,.275.275,0,0,1,.329-.441,3.1,3.1,0,0,1,1.411,2.423c.056,2.038-2.09,3.855-2.181,3.932A.273.273,0,0,1,372.246,386.549Z" data-name="Path 418" transform="translate(-356.919 -379.022)"/><path id="Path_419" fill="#3e2d4a" d="M385.386,414.479a.275.275,0,0,1-.17-.492,5.1,5.1,0,0,0,1.74-4.846,34.775,34.775,0,0,0-1.09-3.843,24.959,24.959,0,0,1-1.587-7.266.275.275,0,0,1,.274-.277h0a.276.276,0,0,1,.275.274,24.616,24.616,0,0,0,1.56,7.1,35.319,35.319,0,0,1,1.107,3.908,5.653,5.653,0,0,1-1.943,5.386A.27.27,0,0,1,385.386,414.479Z" data-name="Path 419" transform="translate(-360.193 -383.725)"/><path id="Path_420" fill="#3e2d4a" d="M383.853,399.241l-.034,0a.275.275,0,0,1-.239-.307,9.418,9.418,0,0,0-1.717-7.357,10.439,10.439,0,0,0-6.542-3.361.275.275,0,0,1,.045-.549,10.84,10.84,0,0,1,6.924,3.562A9.943,9.943,0,0,1,384.126,399,.276.276,0,0,1,383.853,399.241Z" data-name="Path 420" transform="translate(-357.743 -381.041)"/><path id="Path_421" fill="#c05c5d" d="M371.36,417.729c-.287,0-.6-.009-.883-.019a.367.367,0,0,1-.352-.382.384.384,0,0,1,.381-.352,11.211,11.211,0,0,0,1.513-.01.363.363,0,0,1,.465.222.372.372,0,0,1-.227.471A3.6,3.6,0,0,1,371.36,417.729Z" data-name="Path 421" transform="translate(-356.428 -388.831)"/><path id="Path_422" fill="#c05c5d" d="M359.384,409.779a.259.259,0,0,1-.081-.012.276.276,0,0,1-.183-.343,2.75,2.75,0,0,0-.709-2.747.276.276,0,0,1,.366-.412,3.274,3.274,0,0,1,.87,3.32A.276.276,0,0,1,359.384,409.779Z" data-name="Path 422" transform="translate(-353.287 -385.971)"/><path id="Path_423" fill="#c05c5d" d="M381.906,410.88h-.025a.276.276,0,0,1-.25-.3,5.491,5.491,0,0,1,1.25-3.2.275.275,0,0,1,.4.381,5.041,5.041,0,0,0-1.1,2.864A.276.276,0,0,1,381.906,410.88Z" data-name="Path 423" transform="translate(-359.488 -386.265)"/><path id="Path_424" fill="#fffcf6" d="M360.906,408.11s2.392,2,2.58,2.3.112,4.192-.263,4.145-2.655-3.752-2.9-3.745-.139.407-.139.407a22.252,22.252,0,0,0,3.127,4.137c1.174.911,8.5.953,9.992.109s2.758-4,2.643-4.068-.4-.324-.446-.215c-.04.092-2.066,3.7-2.319,3.589s.028-4.12,0-4.5,2.933-3.252,2.933-3.252l.214-.36-.3-.082s-2.9,2.9-3.631,2.882-8.353.534-8.706.406-2.713-2.684-3.008-2.58S360.823,407.883,360.906,408.11Z" data-name="Path 424" transform="translate(-353.775 -386.073)"/></g><path id="Path_425" fill="#df9f85" d="M359.977,427.829s6.25,7.472,11.07,5.472,9.335-7.418,6.912-8.137S356.189,424.823,359.977,427.829Z" data-name="Path 425" transform="translate(-338.695 -390.934)"/><path id="Path_426" fill="#df9f85" d="M393.976,420.318s-.846-6.6-1.13-7.022-2.433,2.816-1.853,4.655-7.448,1.885-6.822,4.57.242,6.313,3.572,6.5,7.129-.718,7.908-1.955S393.976,420.318,393.976,420.318Z" data-name="Path 426" transform="translate(-345.253 -387.85)"/><path id="Path_427" fill="#e6b56f" d="M401.505,430.645s8.63,10.921,6.945,18.1-9.892,8.345-11.576,7.415S395.823,424.423,401.505,430.645Z" data-name="Path 427" transform="translate(-348.425 -392.255)"/><path id="Path_428" fill="#e6b56f" d="M341.724,428.88s-11.263,12.1-10.532,22.9c.6,8.915,14.286,7.558,15.97,6.716S347.406,423.246,341.724,428.88Z" data-name="Path 428" transform="translate(-331.159 -391.841)"/><path id="Path_429" fill="#df9f85" d="M396.815,424.969s11.305,22.361,8.2,26.19-8.625,4.266-10.828,1.091c-1.286-1.853.51-18.229-1.389-20.236S396.212,423.916,396.815,424.969Z" data-name="Path 429" transform="translate(-347.448 -390.934)"/><path id="Path_430" fill="#df9f85" d="M364.972,455.029s7.686,2.9,8.915,5.344-3.332-.537-4.405-.98,2.8,2.639,2.912,3.351-4.3-2.1-4.3-2.1,3.071,3.249,2.768,3.927-3.814-2.111-3.814-2.111,1.822,2.886,1.225,3.3-4.565-4.377-7.836-4.181-15.655,7.38-20.367.163-.736-10.654,8.388-10.553A36.992,36.992,0,0,1,364.972,455.029Z" data-name="Path 430" transform="translate(-332.998 -397.94)"/></g></g></svg>